<svg width="50" height="60" viewBox="0 0 50 60" fill="none" xmlns="http://www.w3.org/2000/svg">
<path fill-rule="evenodd" clip-rule="evenodd" d="M45.4185 6.39097C46.6984 6.85418 48.1141 8.03222 48.5589 10.4229C49.3194 14.5131 50.278 30.7186 49.7848 36.0879C49.0043 44.5796 47.7147 49.6372 47.1812 51.2944C44.4863 59.6894 42.1856 59.904 35.6589 59.904C27.3347 59.904 24.7864 58.6626 24.7864 51.9771C24.7864 44.6128 28.2374 44.4575 34.1025 44.6195C34.5864 44.6316 34.4968 44.9102 34.3339 45.4169C34.214 45.7897 34.0544 46.286 34.0544 46.8904C34.0544 47.4216 34.1299 47.8336 34.1864 48.1418C34.2824 48.6653 34.3235 48.8894 33.8467 48.8894C33.7022 48.8894 33.5534 48.8876 33.4021 48.8859C31.7773 48.8666 29.862 48.8438 29.862 50.9691C29.862 53.7538 31.1511 53.7527 34.5086 53.7499L34.8393 53.7498C39.2849 53.7498 40.1353 53.1925 40.1353 49.1276C40.1353 42.4464 38.2528 41.4216 35.6589 41.1222C32.7902 40.7847 29.967 40.3527 28.606 39.8681C25.3503 38.7072 25.3888 34.5564 25.4032 33.0076C25.404 32.9163 25.4048 32.8341 25.4048 32.762C25.4048 32.567 25.1322 32.5756 25.1322 32.762C25.1322 34.596 25.0015 37.1304 24.0626 39.9867C23.7697 40.8093 23.5566 41.37 23.553 41.3756C22.6508 43.2749 21.2382 43.0462 19.1159 42.7025C18.6943 42.6343 18.2448 42.5615 17.7657 42.5C14.8693 42.1295 8.68928 40.8357 5.98369 39.6727C4.76938 39.1067 4.35758 38.5717 3.73957 37.2873C2.14534 33.9861 0.466978 23.1317 0.26005 21.5779C0.0110577 19.5698 5.29948e-05 18.5323 5.29948e-05 18.5323C-0.00303239 17.2626 0.12676 16.0184 0.874869 15.0103C1.25067 14.5026 1.74526 14.0734 2.44359 13.7551C3.14079 13.437 4.05366 13.2355 5.24823 13.2355H10.8489C12.0698 13.2339 13.0549 12.2407 13.0555 11.0203L13.0541 10.9174C13.0496 10.5943 13.0349 9.55488 13.0212 8.4153C13.0046 7.04892 12.9865 5.51093 12.9865 4.85804C12.9888 3.70447 13.2799 2.87874 13.7297 2.23421C14.4005 1.26939 15.6056 0.643149 16.6946 0.337616C18.0648 -0.0479405 23.4019 -0.385173 26.8562 1.01074C28.1527 1.53528 29.3113 3.05035 29.5525 4.70884C31.562 4.64647 34.8888 4.61983 37.7193 4.95448C41.2375 5.37081 44.0376 5.88987 45.4185 6.39097ZM34.8766 28.4747C35.5998 28.358 36.3754 28.3069 37.1817 28.3352C38.6944 28.3885 40.0832 28.7086 41.2052 29.2108C41.1956 27.5006 40.8228 24.9759 38.1621 24.884C35.7586 24.7993 35.0801 26.8243 34.8766 28.4747Z" fill="#20C05C"/>
<path d="M10.5893 11.6024H4.9859C3.61063 11.6024 2.46173 11.8377 1.5142 12.267C1.47108 12.2859 1.16846 12.4362 0.943892 12.5478L0.937949 12.5507C0.94412 12.5274 0.957387 12.5046 0.978677 12.487L11.8591 1.65457C11.8803 1.6332 11.9018 1.62266 11.9232 1.61905L11.7317 1.98013C11.3309 2.78408 11.101 3.74364 11.101 4.84413V4.85993C11.101 6.14842 11.1638 10.6533 11.1687 10.9993L11.169 11.0204C11.1682 11.34 10.9102 11.6024 10.5893 11.6024Z" fill="#20C05C"/>
</svg>
