<svg width="57" height="60" viewBox="0 0 57 60" fill="none" xmlns="http://www.w3.org/2000/svg">
<path fill-rule="evenodd" clip-rule="evenodd" d="M55.6936 42.8067L55.6882 42.8264C55.5067 43.4904 51.0185 59.909 34.1633 59.904C19.3594 59.8994 12.3426 46.8811 12.3426 46.8811C11.2637 46.9419 10.2227 46.7686 9.26244 46.4117C4.91913 44.7974 2.83523 39.7702 4.3338 35.5526L1.94671 33.707C-7.30015 26.5805 18.8945 -6.03097 28.1574 1.34833C28.2043 1.38562 30.3686 3.14811 30.3686 3.14811C33.6945 1.10474 36.9883 0.000120446 39.6657 7.78571e-08C41.5671 -0.000240424 43.1574 0.556702 44.2283 1.72989C46.6325 4.36352 45.7685 9.39271 42.4855 14.4845C43.1916 15.1627 43.7768 16.0844 44.1945 16.9995C45.2382 17.8142 45.9147 19.0528 46.2508 20.7635C46.4587 21.82 46.5751 23.1255 46.6777 24.277C46.7598 25.1987 46.8331 26.0217 46.9376 26.5393C47.1591 26.6405 47.3015 26.7046 47.4054 26.7514C47.5031 26.7953 47.5667 26.824 47.6299 26.8536C47.7477 26.9089 47.8639 26.9676 48.1971 27.1361C48.2545 27.1651 48.3183 27.1974 48.3897 27.2335C49.3739 27.7311 50.5724 28.3372 51.8969 29.6266C54.2512 30.2233 55.1502 32.7557 53.7726 34.484C53.7356 34.5303 53.5693 34.7297 53.397 34.9281C53.4033 34.9449 53.4192 34.9764 53.4428 35.0233C53.5735 35.2824 53.9396 36.0086 54.2156 37.2848C55.1912 37.5179 55.9683 38.1256 56.3761 39.0069C57.0814 40.7316 55.6936 42.8067 55.6936 42.8067ZM48.9047 55.6074V56.3168H49.1733V55.6074H49.448V55.3835H48.6336V55.6074H48.9047ZM49.5301 56.3168V55.3835H49.9128L50.0807 55.9206L50.2461 55.3835H50.6291V56.3168H50.3842V55.6412L50.1841 56.3168H49.9752L49.775 55.643V56.3168H49.5301Z" fill="#5B453E"/>
<path fill-rule="evenodd" clip-rule="evenodd" d="M54.189 41.8031C53.9765 42.5987 52.9348 46.498 48.7652 49.7864C42.9739 54.3546 35.3646 53.8923 32.4908 51.3323C30.9556 49.8909 30.291 47.8294 30.291 47.8294C30.291 47.8294 30.1172 48.9911 30.0875 49.4474C28.9294 47.4704 29.0273 45.0556 29.0273 45.0556C29.0273 45.0556 28.4095 46.2119 28.1267 46.8596C27.2744 44.6822 27.7148 42.4337 27.7148 42.4337L27.0405 43.4426C27.0405 43.4426 26.7242 40.9781 27.5006 38.9253C28.3302 36.7317 29.939 35.1382 30.2569 34.9396C29.0364 34.5501 27.6302 33.4338 27.6279 33.4318C27.6279 33.4318 28.187 33.4689 28.5757 33.3793C28.5757 33.3793 26.1079 31.6048 25.6753 28.8897C26.0328 29.3332 26.7829 29.8341 26.7829 29.8341C26.5401 29.1236 26.3932 27.5428 26.6201 25.9871L26.6209 25.9854C27.0877 23.0134 29.528 21.078 32.2919 21.1023C32.82 21.107 33.3169 21.1308 33.791 21.1536C35.9585 21.2575 37.6492 21.3385 39.6733 19.465C39.7018 19.4386 39.73 19.4124 39.7579 19.3865C40.2417 18.937 40.6521 18.5559 41.3448 18.4017C41.3585 18.3987 41.3758 18.3936 41.3971 18.3874C41.4963 18.3585 41.6834 18.304 42.007 18.304C42.405 18.304 42.7883 18.3938 43.139 18.6034C44.477 19.4027 44.7654 21.4877 44.9093 23.0164C45.2343 26.4821 45.2803 27.4524 45.7888 27.9499C46.1124 28.2665 46.6232 28.3916 47.5121 28.8462C47.6173 28.8999 47.7238 28.9533 47.8316 29.0073C48.8409 29.5137 49.963 30.0766 51.2229 31.4307C51.2299 31.4382 51.2399 31.4427 51.2502 31.4429C52.4263 31.4712 53.0325 32.4007 52.4899 33.0774C48.5434 37.8081 43.0315 40.0735 36.8887 40.2631C36.6926 40.2681 36.3078 40.2771 36.1412 40.281C36.0921 40.2821 36.062 40.2828 36.0613 40.2829C33.5802 40.3583 32.7724 43.58 34.3291 45.5176C35.313 46.7422 37.2054 47.1447 38.7631 47.1507L38.7851 47.1428C45.5014 47.2794 52.2489 42.5089 53.4143 39.8782C53.4228 39.8592 53.4939 39.6917 53.4939 39.6917C53.4939 39.6917 53.4319 39.7647 53.357 39.8263C53.3534 39.8288 53.3356 39.8451 53.3043 39.8738C52.6677 40.4575 46.4217 46.1847 38.7321 45.9684C38.7321 45.9684 37.8629 45.9503 37.0445 45.759C35.9653 45.507 35.1454 45.0311 34.8316 43.9514C34.7384 43.7536 34.6848 43.0694 34.8087 42.6088C35.1462 41.4749 35.7115 41.465 36.5861 41.4497C36.717 41.4474 36.8548 41.445 36.9998 41.4387C40.9782 41.3057 44.1886 40.3016 46.5946 39.155C49.1602 37.9324 51.1154 36.357 51.8199 35.5618C52.7337 37.1062 52.7281 39.0891 52.7281 39.0891C52.7281 39.0891 53.0866 38.9635 53.561 38.9635C55.0522 38.9636 55.359 40.3023 54.2302 41.6612C54.2233 41.6749 54.2103 41.7234 54.189 41.8031ZM17.12 34.5235C17.12 34.5235 16.9344 35.2949 16.566 36.2347C16.2123 33.2266 14.9546 32.59 14.9546 32.5901C14.2259 32.2512 13.4203 32.0631 12.5732 32.0631C9.30517 32.0631 6.65599 34.8626 6.65599 38.3161C6.65599 41.7694 9.30517 44.5689 12.5732 44.5689C16.2541 44.5689 19.0481 41.0511 18.3977 37.208C18.3977 37.208 18.0224 38.0874 17.6728 38.5543C17.7575 37.1786 17.5417 35.8175 17.12 34.5235Z" fill="#F2D8B4"/>
<path d="M4.78509 33.28C4.7615 33.2739 2.53728 31.6908 2.22088 31.1695C0.34946 28.1066 3.60529 21.8154 5.92222 18.2394C11.6479 9.40158 21.1783 2.42685 25.5069 3.42289L29.952 5.64827C28.226 6.63294 26.5568 7.84238 25.5568 8.64676L24.6109 9.41607C24.6109 9.41607 21.8487 11.2197 20.4749 12.3567C14.9679 16.9143 9.54555 23.9697 7.53472 30.7802C7.53472 30.7799 5.8825 31.5755 4.78509 33.28Z" fill="#207EAC"/>
<path d="M26.624 3.43095C22.2117 2.35033 12.4975 9.91721 6.66106 19.5056C6.65937 19.5084 6.65768 19.5112 6.65599 19.514L6.67955 19.5166L11.33 23.296C16.4362 14.929 22.8538 10.6148 23.0348 10.488L22.2975 5.36693L23.6788 4.68422L26.4509 5.61092L26.2389 4.65491L26.624 3.43095Z" fill="#4FB1D3"/>
<path d="M33.28 4.6738L28.2302 8.05667L27.8769 8.32001L23.3988 4.83543L23.296 4.17645L24.853 3.46648C24.9329 3.49113 27.8544 4.39218 27.9776 4.43018L28.0298 2.58256L28.1728 2.16317L29.5406 1.66401C29.5425 1.6653 33.2748 4.66952 33.28 4.6738Z" fill="#FACD55"/>
<path d="M38.8334 1.66401C35.9806 1.66401 32.7779 3.24602 30.321 4.80141C29.9763 5.01523 29.6344 5.23899 29.2994 5.46704L28.0139 4.33083L28.4808 6.04177C28.3043 6.1696 28.132 6.29706 27.9633 6.42378L25.3071 5.56862L27.0646 7.11984C26.6633 7.44051 26.3049 7.7407 26.0075 8.00064L21.7926 4.3312L22.0158 5.97578L25.0791 8.82158C25.0791 8.82158 22.3682 10.7459 21.02 11.9591C15.6151 16.8217 10.2935 24.3496 8.31999 31.616L8.43215 31.5495C8.44739 31.5406 8.46275 31.5332 8.47799 31.5244C8.53291 31.4932 8.58759 31.4635 8.64251 31.4343C8.67776 31.4157 8.71278 31.3968 8.74804 31.379C8.80447 31.3504 8.86101 31.3238 8.91756 31.2975C8.95083 31.282 8.98434 31.2656 9.01773 31.251C9.07893 31.2239 9.14001 31.1994 9.20121 31.175C9.22949 31.1637 9.25776 31.1513 9.28603 31.1408C9.37515 31.107 9.46393 31.076 9.55247 31.0481C10.8942 30.6261 12.7196 30.3548 14.8564 31.3115C15.9295 28.4577 17.2116 25.5543 19.2319 22.7644C20.8701 20.5023 22.4448 18.4828 24.3349 17.3721C27.9135 13.8276 37.5589 10.0689 40.649 13.3269C41.3796 12.0667 42.0137 10.8737 42.5361 9.37816C43.8255 5.7817 43.849 1.66401 38.8334 1.66401Z" fill="#131B23"/>
<path d="M28.288 4.992L27.2402 3.328L26.624 4.157L26.9928 4.80866L28.288 4.992Z" fill="#131B23"/>
<path fill-rule="evenodd" clip-rule="evenodd" d="M37.9783 1.66396C36.4119 1.82822 34.7788 2.39811 33.2551 3.11941C28.1115 5.59646 24.5215 9.25043 24.0909 9.68869C24.0724 9.70751 24.0597 9.7204 24.053 9.72701C23.6258 10.1478 23.1999 10.5837 22.7775 11.0323C21.5206 12.3666 20.2927 13.8117 19.1421 15.2976C17.1075 17.9249 16.2609 19.1509 14.9757 21.6482C14.9755 21.6485 14.9843 21.6377 15.0015 21.6165C15.4658 21.0458 22.0647 12.9331 23.7533 11.2132C26.9667 7.94024 32.2264 4.29518 32.2811 4.2627C34.527 2.85153 36.4226 2.02333 37.9783 1.66396ZM50.6983 34.6082C51.5836 36.1387 51.5782 38.104 51.5782 38.104C51.5935 38.6681 51.5754 38.9792 51.5447 39.4154C49.7493 40.9719 44.3962 45.1058 38.018 44.922C38.018 44.922 37.1759 44.9043 36.383 44.7147C35.343 44.4663 34.5516 43.9982 34.2438 42.9403L34.239 42.9231L34.2384 42.9218C34.2336 42.9109 34.194 42.8156 34.1685 42.6103L34.1675 42.6023L34.1667 42.5946C34.1609 42.5434 34.1561 42.489 34.1527 42.4322L34.1513 42.4058C34.1468 42.315 34.1457 42.211 34.1494 42.0929C34.151 42.0516 34.1535 42.0102 34.1568 41.969L34.1577 41.956C34.1685 41.8284 34.1875 41.7038 34.2169 41.5924C34.5439 40.4686 35.0916 40.4588 35.9389 40.4436C36.0657 40.4413 36.1992 40.4389 36.3397 40.4327C40.1942 40.3009 43.3048 39.3056 45.6357 38.1693C48.1214 36.9576 50.0157 35.3963 50.6983 34.6082Z" fill="#FFFFFE"/>
<path fill-rule="evenodd" clip-rule="evenodd" d="M44.1085 24.7291C44.3882 27.71 44.4546 28.4178 45.0454 28.8379C45.0617 28.8537 45.0783 28.8673 45.095 28.8784C44.6983 28.9941 44.3433 29.1029 44.0285 29.2025C43.4485 28.4161 42.643 27.6808 40.9873 27.8004C38.793 27.9887 37.0492 29.9504 37.365 31.8984C36.3223 32.4244 35.3511 32.9699 34.4479 33.5252C32.9576 33.6849 31.1422 34.1995 29.5411 35.5401C28.3342 35.1599 26.9437 34.0704 26.9412 34.0685C26.9412 34.0685 27.4942 34.1047 27.8785 34.0173C27.8785 34.0173 27.8519 33.9983 27.8038 33.9615C27.8017 33.9588 27.7993 33.9562 27.7964 33.954C27.7636 33.9283 27.7302 33.9028 27.6963 33.877C27.1223 33.4156 25.3673 31.8443 25.0105 29.6353C25.364 30.0681 26.1058 30.5569 26.1058 30.5569C26.0969 30.5315 26.0883 30.5048 26.0797 30.4771C26.081 30.4731 26.0817 30.4687 26.0817 30.4643C26.0817 30.4643 25.9787 30.1707 25.9064 29.6048C25.8866 29.4458 25.8703 29.2764 25.858 29.099C25.8502 28.9795 25.8442 28.8526 25.8407 28.718C25.9315 27.6013 26.2163 26.6631 26.9257 25.7755C27.9601 24.4814 29.3795 23.9555 31.0172 23.9808C31.468 23.9865 31.9235 24.0331 32.3983 24.0816C32.8542 24.1281 33.3278 24.1765 33.8322 24.1923C35.2387 24.2362 36.5935 24.0044 38.0191 23.3652C39.4277 22.7 40.2241 21.9324 41.0577 20.7405C41.3513 20.419 41.8694 19.9486 42.3276 19.9686C42.6315 19.9686 42.8424 20.1178 42.9924 20.2477C43.7179 21.2182 43.9187 22.7288 44.0306 23.9032C44.0585 24.1964 44.0843 24.4713 44.1085 24.7291ZM39.8262 30.4789C40.1647 29.3979 41.7003 28.878 42.6273 29.5313C42.2131 29.77 42.0855 30.4621 42.3382 30.8637C41.8142 30.854 41.2756 31.0591 40.8968 31.4223C40.932 30.9078 40.3627 30.5057 39.8262 30.4789ZM45.4245 51.584C46.2533 51.1521 47.0651 50.6369 47.8437 50.0307C51.9663 46.8217 52.9967 43.0164 53.2071 42.2392C53.2282 42.1615 53.2411 42.1137 53.248 42.1004C51.3395 44.5452 48.8429 46.4881 46.1714 47.8331C43.9749 48.9397 42.3316 49.3247 42.3316 49.3247C42.3316 49.3247 43.5078 50.8623 45.4245 51.584ZM32.9002 42.7231C33.1923 41.6463 34.017 40.7932 35.2812 40.7552L35.3616 40.7534C35.527 40.7495 35.9061 40.7408 36.0994 40.7359C42.1739 40.5509 47.6244 38.3399 51.5269 33.7227C52.0635 33.0622 51.4641 32.1551 50.3011 32.1275C50.2964 32.1273 50.2845 32.1275 50.2845 32.1275C50.1839 32.2328 50.1255 32.3827 50.049 32.5792C49.9759 32.767 49.8862 32.9974 49.7272 33.2722C48.5401 35.3154 46.8983 36.2497 44.709 37.3337C41.1501 39.0891 38.4996 39.4807 36.5865 39.7633C34.8914 40.0138 33.7753 40.1787 33.119 41.131C32.7131 41.7275 32.7054 42.3939 32.9002 42.7231ZM45.8375 41.9581C45.8208 41.9584 45.8035 41.9621 45.7759 41.9682C45.6893 41.9881 45.4973 42.0502 45.2192 42.1401C43.3721 42.7374 37.7291 44.5623 33.9814 43.3961C33.962 43.6298 33.9683 44.121 34.0649 44.3344L34.0653 44.3357C34.7176 44.4652 35.5432 44.5481 36.5013 44.5481C42.1755 44.5481 46.2646 41.9921 45.8375 41.9581ZM14.098 41.4299L14.0931 41.4332C11.4268 41.628 8.96128 38.2521 10.4169 36.3906C10.6163 36.2419 10.7868 36.1564 10.8543 36.1226C10.8661 36.1167 10.8747 36.1124 10.8798 36.1095C10.9187 36.0891 10.9586 36.0724 11 36.0551C11.0287 36.0432 11.0581 36.0309 11.0885 36.0168C11.1176 36.0047 11.1512 35.9946 11.1881 35.9843C11.3063 35.9512 11.3318 35.9419 11.3577 35.9345C11.3836 35.9272 11.41 35.9217 11.5295 35.8967C12.8244 35.6248 13.7378 36.1926 14.1355 36.7508C14.3187 37.0077 14.3581 37.2009 14.3866 37.341C14.3959 37.3865 14.404 37.4265 14.4156 37.4611L14.4158 37.4629C14.1058 37.0343 13.7054 36.9404 13.7054 36.9404C13.3678 36.8072 12.7191 37.0107 12.6769 37.7344C12.6572 38.0127 12.741 38.3246 12.9813 38.5988L12.9831 38.6008C12.9917 38.6105 13.0004 38.6203 13.0094 38.6299C13.0177 38.6389 13.0262 38.6478 13.0346 38.6564C13.2316 38.8587 13.4658 39.0059 13.6894 39.1464C14.0731 39.3876 14.4257 39.6092 14.5063 40.0562C14.5884 40.5479 14.4435 41.062 14.098 41.4299Z" fill="#E2B986"/>
<path fill-rule="evenodd" clip-rule="evenodd" d="M40.4775 12.997C38.3317 11.3193 32.0685 11.7944 25.7983 15.9271C22.9273 17.8192 20.8221 19.8888 19.1994 22.0391C19.1994 22.0391 21.7043 17.1969 27.2084 13.9942C26.8247 13.9315 25.9225 14.0412 25.6636 14.0727C25.6459 14.0749 25.6312 14.0766 25.6199 14.078C26.6198 13.2034 28.4774 12.6196 29.761 12.3542C29.3853 12.1111 28.4906 12.0497 28.0465 12.0378C27.9253 12.0345 27.9172 12.0348 27.7949 12.0401C27.7846 12.0405 27.7735 12.041 27.7614 12.0415C28.9687 11.3551 31.2073 10.9522 33.2423 11.3161C32.9866 10.9709 32.4065 10.719 32 10.5965C31.9645 10.5857 31.8048 10.5454 31.8048 10.5454C31.8048 10.5454 31.9409 10.5127 31.9581 10.5093C33.184 10.2693 34.616 10.5285 35.7488 10.991C35.6202 10.6874 35.3058 10.3338 35.0695 10.11C35.0453 10.0871 34.9042 9.98401 34.9042 9.98401C36.0894 10.2338 37.2251 10.7595 38.0797 11.3563C37.9635 11.1281 37.6762 10.7439 37.4775 10.5341C38.6099 10.8636 39.8813 11.6848 40.4261 12.862C40.4386 12.8869 40.4697 12.9737 40.4768 12.9934L40.4775 12.997ZM35.4511 28.7102C35.5734 28.8921 35.6061 29.0293 35.5567 29.0865C35.4681 29.1919 35.174 29.0743 34.737 28.8995L34.7359 28.8991C34.6878 28.8798 34.6379 28.8599 34.5864 28.8395C33.2561 28.3349 32.276 28.258 30.541 28.9258L30.4024 28.9798C30.0366 29.1228 29.775 29.225 29.642 29.2048C29.3987 29.168 29.6343 28.7151 30.166 28.2758C31.236 27.4078 32.7054 27.1384 33.9612 27.6136C34.5108 27.8193 35.1281 28.2299 35.4511 28.7102ZM35.1875 30.0939C34.8228 29.8107 34.1512 29.6207 33.4539 29.7412C33.345 29.7581 33.2422 29.7879 33.142 29.8171C33.1075 29.8271 33.0734 29.837 33.0394 29.8463C32.9906 29.8585 32.944 29.876 32.8986 29.8954C32.6103 30.0189 32.3607 30.152 32.1185 30.388C31.8407 30.6611 31.7617 30.9146 31.842 30.9771C31.9108 31.0329 32.0657 30.9681 32.3009 30.8696C32.3357 30.8551 32.3722 30.8398 32.4105 30.824C33.4062 30.4031 34.1108 30.3919 34.7821 30.4395L34.8299 30.4428C35.1271 30.4633 35.325 30.477 35.3728 30.3918C35.4083 30.3309 35.3439 30.2152 35.1875 30.0939ZM13.7464 35.2867C13.2023 34.8405 12.431 34.6292 11.5349 34.8224L11.5189 34.8259C11.4143 34.8484 11.3887 34.854 11.3642 34.8611C11.3565 34.8634 11.3489 34.8658 11.3388 34.869C11.3151 34.8765 11.278 34.8882 11.1953 34.9119C11.1584 34.9224 11.125 34.9329 11.0961 34.9451C11.0661 34.9594 11.037 34.9718 11.0086 34.984C10.9672 35.0018 10.9273 35.0189 10.8884 35.0399C10.8834 35.0428 10.8749 35.0471 10.8633 35.0531C10.7486 35.112 10.3311 35.3263 9.98538 35.7564C9.80066 35.9893 9.6587 36.2485 9.55513 36.515C9.36798 37.0074 9.29805 37.5471 9.31804 38.0655C9.34551 38.7734 9.53072 39.1982 9.6 39.3571C9.60828 39.3761 9.6149 39.3913 9.6194 39.4027C9.79638 39.7893 9.38185 39.8688 9.00374 39.4533L9.00282 39.4523C8.7003 39.1267 8.50656 38.6308 8.41178 38.1904C8.35583 37.9286 8.31999 37.6346 8.31999 37.3186C8.31999 36.9519 8.36831 36.5551 8.48957 36.144C8.81752 35.0643 9.55478 34.2479 10.6748 33.8038C10.7459 33.7754 10.8251 33.7544 10.8992 33.7347C10.9327 33.7258 10.9653 33.7171 10.9956 33.7082L10.9945 33.7084C11.1832 33.6511 11.8587 33.5121 12.5455 33.6207C12.9429 33.6834 13.3044 33.8171 13.6159 33.9936C13.9268 34.1696 14.1883 34.3883 14.3869 34.6229L14.3877 34.6239C14.7123 34.9992 14.9573 35.5287 14.9137 35.9999L14.9136 36.0011C14.8973 36.1971 14.812 36.4779 14.6383 36.5507C14.5737 36.5775 14.509 36.5633 14.4637 36.5181C14.4129 36.4675 14.3985 36.3953 14.3792 36.2982C14.3508 36.155 14.3116 35.9576 14.1291 35.695C14.0357 35.5603 13.9098 35.4188 13.7464 35.2867ZM13.5552 37.0462C13.4314 36.9465 13.3739 36.8614 13.3397 36.7305C13.2892 36.4918 13.3156 36.3533 13.5161 36.21C13.5596 36.1797 13.6007 36.1538 13.6373 36.1308C13.7307 36.072 13.7949 36.0315 13.7953 35.983C13.8022 35.8551 13.2856 35.7234 12.9244 36.085C12.6245 36.4099 12.5299 37.0872 13.0083 37.6151C13.2097 37.8361 13.4534 37.9932 13.6856 38.143C14.0674 38.3892 14.4181 38.6153 14.4983 39.0723C14.5153 39.1764 14.5279 39.2924 14.519 39.4068C14.5207 39.5243 14.4863 39.6879 14.4775 39.7298L14.4756 39.7393C14.3153 40.4491 13.6529 41.1264 12.5605 40.9538L12.513 40.9467C12.3387 40.9205 12.2257 40.9034 12.19 40.9554C12.1057 41.0746 12.5739 41.6193 13.4309 41.5995C14.2695 41.5814 15.1013 40.943 15.368 39.9835L15.3698 39.9766C15.3822 39.931 15.4502 39.681 15.4562 39.4553C15.4712 39.2747 15.4584 39.089 15.4253 38.8947C15.2621 37.9745 14.5493 37.6004 14.0123 37.3186C13.8303 37.2231 13.6685 37.1382 13.5552 37.0462ZM42.0503 28.9913C42.1213 28.5292 42.4473 28.1973 42.7787 28.2498C43.11 28.3025 43.3212 28.7197 43.2503 29.1817C43.1793 29.6438 42.8532 29.9758 42.5219 29.9232C42.1905 29.8705 41.9793 29.4534 42.0503 28.9913ZM39.1376 29.5977C38.9555 29.9356 39.1773 30.4155 39.6331 30.6694C40.0888 30.9235 40.6059 30.8554 40.7881 30.5173C40.9702 30.1794 40.7485 29.6995 40.2925 29.4456C39.8368 29.1917 39.3197 29.2597 39.1376 29.5977Z" fill="#916D53"/>
<path d="M39.9365 26.338C39.9298 25.8804 39.9833 25.1243 40.3017 24.9836C40.3012 24.9837 40.3021 24.9835 40.3017 24.9836C40.8458 24.7283 41.5669 26.6137 41.6 28.288C41.17 27.9966 40.6648 27.873 40.1452 27.934C40.0146 27.395 39.952 26.8872 39.9365 26.338Z" fill="#5B453E"/>
</svg>
